<?xml version="1.0" standalone="no"?>
<!DOCTYPE svg PUBLIC "-//W3C//DTD SVG 20010904//EN"
 "http://www.w3.org/TR/2001/REC-SVG-20010904/DTD/svg10.dtd">
<svg version="1.0" xmlns="http://www.w3.org/2000/svg"
 width="300.000000pt" height="300.000000pt" viewBox="0 0 300.000000 300.000000"
 preserveAspectRatio="xMidYMid meet">
<metadata>
Created by potrace 1.10, written by Peter Selinger 2001-2011
</metadata>
<g transform="translate(0.000000,300.000000) scale(0.100000,-0.100000)"
fill="#000000" stroke="none">
<path d="M385 1726 c-51 -22 -69 -89 -41 -145 8 -15 40 -47 70 -70 49 -36 56
-46 56 -75 0 -19 -6 -36 -12 -39 -24 -7 -48 5 -54 29 -5 20 -12 24 -45 24 -38
0 -39 -1 -33 -27 17 -72 53 -98 125 -91 67 7 90 30 97 98 l5 51 -77 73 c-42
40 -76 77 -76 82 0 16 23 34 42 34 11 0 23 -11 28 -25 8 -20 16 -25 45 -25 28
0 35 4 35 20 0 78 -84 121 -165 86z"/>
<path d="M590 1533 l0 -203 40 0 39 0 -6 50 c-5 46 10 110 26 110 3 0 19 -36
35 -80 l28 -80 40 0 c46 0 47 -10 -13 143 l-38 97 45 80 c24 44 44 82 44 84 0
2 -18 3 -39 3 -39 -2 -40 -3 -78 -80 -21 -44 -42 -81 -46 -84 -5 -3 -7 32 -6
77 l3 82 -37 3 -37 2 0 -204z m120 16 c0 -4 3 -15 7 -25 5 -14 3 -16 -11 -11
-11 4 -29 -1 -47 -14 l-29 -20 0 39 c0 39 0 39 40 39 22 0 40 -3 40 -8z"/>
<path d="M864 1731 c-2 -2 -4 -94 -4 -203 l0 -198 95 0 95 0 0 35 0 35 -55 0
-55 0 0 50 0 50 50 0 50 0 0 35 0 35 -50 0 -50 0 0 48 0 49 56 -5 55 -5 -3 38
-3 37 -88 1 c-49 1 -91 0 -93 -2z"/>
<path d="M1164 1725 c-1 -5 -20 -97 -42 -202 l-40 -193 38 0 c37 0 39 2 45 40
7 39 7 40 50 40 45 0 55 -10 55 -56 0 -21 4 -24 40 -24 38 0 39 1 34 29 -3 16
-22 106 -43 201 l-36 173 -49 1 c-27 0 -50 -3 -52 -9z m70 -163 c4 -29 9 -59
12 -67 5 -11 -2 -15 -28 -15 l-34 0 15 80 c16 86 24 86 35 2z"/>
<path d="M1380 1533 l0 -203 42 0 41 0 -7 122 c-4 74 -3 119 2 113 5 -6 27
-61 48 -122 l39 -113 43 0 42 0 -2 201 -3 201 -39 3 -38 2 4 -118 c4 -112 -2
-142 -16 -82 -4 16 -20 66 -37 113 l-30 85 -45 0 -44 1 0 -203z m86 90 c5 -25
2 -33 -15 -42 -20 -11 -21 -10 -21 46 0 51 2 56 15 43 8 -9 17 -29 21 -47z
m114 -173 c0 -59 -11 -64 -29 -13 -12 33 -12 38 5 50 10 7 19 13 21 13 2 0 3
-22 3 -50z"/>
<path d="M1680 1735 c0 0 -1 -91 -3 -203 l-2 -202 38 0 37 0 0 54 c0 57 15
114 28 102 4 -4 19 -40 33 -79 l26 -72 43 -3 c32 -3 41 0 37 10 -3 7 -24 61
-47 121 l-42 107 46 84 46 84 -41 -2 -41 -1 -41 -82 c-23 -46 -44 -83 -47 -83
-3 0 -4 37 -2 83 l3 84 -35 -1 c-20 -1 -36 -1 -36 -1z m118 -204 c3 -16 0 -21
-8 -16 -7 4 -25 -2 -41 -14 l-29 -22 0 39 c0 38 0 39 38 38 31 -2 38 -6 40
-25z"/>
<path d="M1954 1731 c-2 -2 -4 -94 -4 -203 l0 -198 95 0 95 0 0 35 0 35 -55 0
-55 0 0 50 0 50 50 0 50 0 0 35 0 35 -50 0 -50 0 0 49 0 50 55 -6 55 -6 0 39
0 39 -91 0 c-50 0 -92 -2 -95 -4z"/>
<path d="M2190 1533 l0 -203 35 0 35 0 0 75 c0 58 3 75 14 75 8 0 25 -30 41
-75 l28 -75 39 0 c34 0 39 3 33 18 -4 9 -17 44 -30 77 l-23 61 24 27 c46 53
26 200 -29 211 -12 3 -55 7 -94 8 l-73 4 0 -203z m128 125 c7 -7 12 -30 12
-53 0 -46 -13 -65 -47 -65 -22 0 -23 4 -23 65 0 61 1 65 23 65 13 0 28 -5 35
-12z"/>
<path d="M2505 1726 c-51 -22 -69 -89 -41 -145 8 -15 40 -47 70 -70 49 -36 56
-46 56 -75 0 -20 -6 -36 -14 -39 -18 -7 -56 20 -56 39 0 10 -12 14 -39 14
l-39 0 9 -37 c12 -56 49 -83 110 -83 42 0 55 5 80 29 24 24 29 38 29 77 0 46
-2 50 -75 119 -41 40 -75 76 -75 81 0 16 23 34 42 34 11 0 23 -11 28 -25 8
-20 16 -25 45 -25 28 0 35 4 35 20 0 78 -84 121 -165 86z"/>
</g>
</svg>
